<svg width="40" height="34" viewBox="0 0 40 34" fill="none" xmlns="http://www.w3.org/2000/svg">
<g clip-path="url(#clip0_31_2)">
<path d="M37.6987 28.361L33.8911 32.649H5.03762L2.12251 28.361L16.5196 1.35099H23.5396L37.6987 28.361Z" fill="#040110"/>
<path d="M14.7348 23.9612H24.551M14.7348 23.9612L19.4941 15.2179M14.7348 23.9612L12.1767 28.361H37.6987M24.551 23.9612L19.4941 15.2179M24.551 23.9612H29.1318L19.4941 5.97331L16.5196 1.35099M19.4941 15.2179L16.5196 11.3196L5.03762 32.649M37.6987 28.361L33.8911 32.649H5.03762M37.6987 28.361L23.5396 1.35099H16.5196M16.5196 1.35099L2.12251 28.361L5.03762 32.649" stroke="#6F3DD4" stroke-width="2.70199"/>
</g>
<defs>
<clipPath id="clip0_31_2">
<rect width="38.9536" height="34" fill="white" transform="translate(0.546356)"/>
</clipPath>
</defs>
</svg>
