
<svg width="245" height="52" viewBox="0 0 245 52" fill="none" xmlns="http://www.w3.org/2000/svg">
<g clip-path="url(#clip0_1_11)">
<path d="M23.8125 11.75C24.8502 11.7242 25.8879 11.6984 26.957 11.6719C31.6234 12.1751 34.1419 14.0193 37.1875 17.5C38.4969 19.306 39.7626 21.1439 41 23C42.155 23.1444 43.31 23.2887 44.5 23.4375C45.655 23.6231 46.81 23.8088 48 24C49.125 26 49.125 26 50 28C52.5195 28.7374 52.5195 28.7374 55 29C56.8949 30.8949 56.1802 33.5714 56.2305 36.0898C56 38 56 38 54 40C51.8882 40.2674 51.8882 40.2674 49.2466 40.2905C48.2586 40.3033 47.2706 40.316 46.2527 40.3292C44.6465 40.3325 44.6465 40.3325 43.0078 40.3359C41.9103 40.3426 40.8128 40.3493 39.6821 40.3561C37.3569 40.3662 35.0317 40.3709 32.7065 40.3706C29.1463 40.375 25.5873 40.4113 22.0273 40.4492C19.7708 40.4551 17.5143 40.4591 15.2578 40.4609C14.191 40.4753 13.1243 40.4897 12.0252 40.5045C4.64771 40.4588 4.64771 40.4588 1.33179 38.1099C-0.949433 34.4959 -0.882857 31.1125 3.69549e-06 27C2.25 24.4375 2.25 24.4375 5 23C6.32 23 7.64 23 9 23C9.04125 22.2781 9.0825 21.5562 9.125 20.8125C10.3947 16.7315 12.5772 15.5147 16 13C18.6766 11.6617 20.8243 11.7942 23.8125 11.75ZM25 15C25 15.66 25 16.32 25 17C22.36 17 19.72 17 17 17C17 17.33 17 17.66 17 18C18.98 18 20.96 18 23 18C23 18.66 23 19.32 23 20C22.34 20 21.68 20 21 20C21 20.66 21 21.32 21 22C18.36 22 15.72 22 13 22C13 22.33 13 22.66 13 23C15.31 23 17.62 23 20 23C20 23.66 20 24.32 20 25C17.36 25 14.72 25 12 25C11.67 26.98 11.34 28.96 11 31C8.36 31 5.72 31 3 31C3 31.33 3 31.66 3 32C5.64 32 8.28 32 11 32C11.66 33.65 12.32 35.3 13 37C25.54 37 38.08 37 51 37C51.66 35.68 52.32 34.36 53 33C51.9336 31.7037 51.9336 31.7037 49.4375 31.9375C48.6331 31.9581 47.8288 31.9787 47 32C46.505 30.02 46.505 30.02 46 28C44.1082 27.3185 44.1082 27.3185 42 27C41.34 27.66 40.68 28.32 40 29C39.01 29 38.02 29 37 29C36.7731 27.7831 36.5463 26.5662 36.3125 25.3125C35.2309 21.0167 33.5712 18.7407 30 16C27.3221 15.1276 27.3221 15.1276 25 15Z" fill="#9A25D0"/>
</g>
</svg>