<svg width="172" height="38" viewBox="0 0 172 38" fill="none" xmlns="http://www.w3.org/2000/svg">
<path d="M29.431 19.1471C29.4318 19.1368 29.432 19.1045 29.432 19.0722C29.432 19.0395 29.4318 19.0068 29.4314 18.9741C29.4694 18.9742 29.5082 18.9829 29.5447 19.0017C29.5863 19.023 29.6134 19.0515 29.6292 19.0722C29.6362 19.0813 29.641 19.089 29.644 19.0938C29.6547 19.1114 29.6612 19.127 29.6648 19.1365L29.431 19.1471ZM29.431 19.1471L29.431 19.1472C29.4317 19.1635 29.4318 19.1659 29.432 19.1784L29.5598 19.1577L29.431 19.1471ZM34.4056 23.6565C29.3597 23.6565 25.2356 27.4479 25.2305 32.1658C25.1713 34.5744 23.0381 36.5342 20.3856 36.5342C17.691 36.5342 15.5395 34.5145 15.5395 32.0622C15.5395 29.6099 17.691 27.5903 20.3856 27.5903L20.3876 27.5903L20.412 27.59L20.4261 27.5895C20.4497 27.5903 20.4833 27.5903 20.5069 27.5903C25.4892 27.5903 29.5828 23.8908 29.6803 19.2411C29.6808 19.2342 29.6811 19.2276 29.6813 19.2231C29.6817 19.2123 29.682 19.199 29.682 19.1858L29.682 19.1834L29.6817 19.1595L29.6812 19.1477C29.682 19.124 29.682 19.0933 29.682 19.0736V19.0722C29.682 14.3503 25.556 10.5542 20.5069 10.5542C20.4556 10.5542 20.4043 10.5546 20.353 10.5553C17.6775 10.5432 15.5395 8.52782 15.5395 6.08341C15.5395 3.6311 17.691 1.61146 20.3856 1.61146C23.0709 1.61146 25.2183 3.61773 25.2317 6.06029C25.2309 6.101 25.2305 6.14855 25.2305 6.19577C25.2305 10.9177 29.3565 14.7138 34.4056 14.7138C34.4366 14.7138 34.4676 14.7137 34.4985 14.7134C34.5007 14.7135 34.5024 14.7135 34.5033 14.7136L34.5264 14.7138H34.5282C37.2228 14.7138 39.3743 16.7335 39.3743 19.1858C39.3743 21.6302 37.2362 23.6459 34.5518 23.6577C34.508 23.6569 34.4567 23.6565 34.4056 23.6565ZM34.7577 14.4685C34.6948 14.4659 34.6316 14.4644 34.5681 14.464L34.6235 14.685C34.6215 14.686 34.6286 14.6824 34.6361 14.6779C34.6364 14.6778 34.6722 14.6581 34.7032 14.6193C34.7205 14.5977 34.7541 14.548 34.7575 14.475C34.7576 14.4728 34.7576 14.4707 34.7577 14.4685ZM26.1213 32.1788L26.1213 32.1788L26.1213 32.1731C26.1222 27.9628 29.8126 24.518 34.4056 24.518C34.4532 24.518 34.5006 24.5184 34.548 24.5191V24.5191L34.5528 24.5191C37.6917 24.5068 40.2651 22.1412 40.2651 19.1858C40.2651 16.2226 37.6783 13.8524 34.5282 13.8524C34.5237 13.8524 34.5189 13.8523 34.5136 13.8521L34.5137 13.8517L34.501 13.8519C34.4692 13.8522 34.4374 13.8524 34.4056 13.8524C29.812 13.8524 26.1213 10.4067 26.1213 6.19577C26.1213 6.1521 26.1217 6.10853 26.1225 6.06505L26.1226 6.06505L26.1226 6.05934C26.1085 3.10731 23.5273 0.75 20.3856 0.75C17.2355 0.75 14.6487 3.12021 14.6487 6.08341C14.6487 9.03853 17.2215 11.4039 20.3599 11.4168V11.4168L20.3648 11.4167C20.4121 11.416 20.4595 11.4156 20.5069 11.4156C25.1005 11.4156 28.7912 14.8612 28.7912 19.0722C28.7912 19.1021 28.791 19.1319 28.7907 19.1618L28.7906 19.17L28.791 19.1782L28.7912 19.1858C28.7912 19.1881 28.7911 19.1916 28.7907 19.1963L28.79 19.2044L28.7898 19.2126C28.7092 23.3593 25.0493 26.7288 20.5069 26.7288C20.4749 26.7288 20.443 26.7287 20.4111 26.7283L20.4111 26.728L20.3976 26.7286L20.3856 26.7288C17.2355 26.7288 14.6487 29.099 14.6487 32.0622C14.6487 35.0254 17.2355 37.3956 20.3856 37.3956C23.4945 37.3956 26.0541 35.0877 26.1213 32.1788ZM11.3331 19.1858C11.3331 21.6381 9.18156 23.6577 6.48696 23.6577C3.79236 23.6577 1.64083 21.6381 1.64083 19.1858C1.64083 16.7335 3.79236 14.7138 6.48696 14.7138C9.18156 14.7138 11.3331 16.7335 11.3331 19.1858ZM0.75 19.1858C0.75 22.149 3.33685 24.5192 6.48696 24.5192C9.63707 24.5192 12.2239 22.149 12.2239 19.1858C12.2239 16.2226 9.63707 13.8524 6.48696 13.8524C3.33685 13.8524 0.75 16.2226 0.75 19.1858Z" stroke="#6F3DD4" stroke-width="0.5"/>
<path d="M54.4951 30.5728V11.0848H59.5031V30.5728H54.4951ZM48.8471 14.3008V10.1248H65.1351V14.3008H48.8471ZM77.6966 30.5728V21.3248C77.6966 20.7488 77.622 20.2528 77.4726 19.8368C77.3233 19.4102 77.0726 19.0848 76.7206 18.8608C76.3793 18.6368 75.8993 18.5248 75.2806 18.5248C74.7793 18.5248 74.3366 18.6155 73.9526 18.7968C73.5686 18.9675 73.2486 19.2075 72.9926 19.5168C72.7473 19.8155 72.5553 20.1568 72.4166 20.5408L71.4246 18.2528H72.5606C72.7206 17.5382 72.9926 16.8982 73.3766 16.3328C73.7606 15.7675 74.2886 15.3195 74.9606 14.9888C75.6433 14.6475 76.4966 14.4768 77.5206 14.4768C78.694 14.4768 79.654 14.7062 80.4006 15.1648C81.1473 15.6128 81.6966 16.2848 82.0486 17.1808C82.4113 18.0768 82.5926 19.1968 82.5926 20.5408V30.5728H77.6966ZM67.5846 30.5728V9.43682H72.4486V14.1408L72.3686 19.3248L72.4806 19.7088V30.5728H67.5846ZM93.5176 30.9728C90.659 30.9728 88.547 30.3382 87.1816 29.0688C85.8163 27.7888 85.1336 25.9275 85.1336 23.4848V21.8528C85.1336 19.4422 85.7736 17.5968 87.0536 16.3168C88.3336 15.0262 90.195 14.3808 92.6376 14.3808C94.2803 14.3808 95.6456 14.6635 96.7336 15.2288C97.8323 15.7835 98.6536 16.5782 99.1976 17.6128C99.7523 18.6475 100.03 19.8902 100.03 21.3408V21.8688C100.03 22.2742 100.008 22.6902 99.9656 23.1168C99.9336 23.5328 99.8856 23.9222 99.8216 24.2848H95.4056C95.4483 23.6662 95.475 23.0848 95.4856 22.5408C95.4963 21.9862 95.5016 21.4848 95.5016 21.0368C95.5016 20.3862 95.4003 19.8422 95.1976 19.4048C94.995 18.9568 94.6803 18.6155 94.2536 18.3808C93.8376 18.1462 93.299 18.0288 92.6376 18.0288C91.6563 18.0288 90.9363 18.2955 90.4776 18.8288C90.0296 19.3515 89.8056 20.0982 89.8056 21.0688V22.5088L89.8376 23.0368V24.1568C89.8376 24.5622 89.9016 24.9462 90.0296 25.3088C90.1683 25.6715 90.403 25.9915 90.7336 26.2688C91.075 26.5355 91.539 26.7488 92.1256 26.9088C92.723 27.0582 93.4803 27.1328 94.3976 27.1328C95.3683 27.1328 96.3016 27.0422 97.1976 26.8608C98.0936 26.6688 98.9523 26.4128 99.7736 26.0928L99.3736 29.7728C98.6483 30.1462 97.7896 30.4395 96.7976 30.6528C95.8056 30.8662 94.7123 30.9728 93.5176 30.9728ZM87.7256 24.2848V21.2608H98.8296V24.2848H87.7256ZM101.606 34.9888V31.2128H114.614V34.9888H101.606ZM123.091 30.9248C121.694 30.9248 120.579 30.7168 119.747 30.3008C118.926 29.8742 118.334 29.2395 117.971 28.3968C117.609 27.5542 117.427 26.5142 117.427 25.2768V16.4928H122.291V24.4928C122.291 25.2608 122.462 25.8262 122.803 26.1888C123.155 26.5408 123.806 26.7168 124.755 26.7168C125.278 26.7168 125.795 26.6582 126.307 26.5408C126.819 26.4235 127.283 26.2742 127.699 26.0928L127.283 30.1408C126.739 30.3755 126.11 30.5622 125.395 30.7008C124.691 30.8502 123.923 30.9248 123.091 30.9248ZM115.315 18.7488V14.9088H127.555L127.123 18.7488H115.315ZM117.491 15.2608L117.475 11.1968L122.323 10.7328L122.147 15.2608H117.491ZM138.968 30.5728L139.112 26.6368L139 26.3968V21.4848L138.968 20.8448C138.968 19.9702 138.712 19.3248 138.2 18.9088C137.688 18.4928 136.829 18.2848 135.624 18.2848C134.568 18.2848 133.565 18.4182 132.616 18.6848C131.666 18.9515 130.77 19.2555 129.928 19.5968L130.344 15.8048C130.845 15.5702 131.405 15.3515 132.024 15.1488C132.653 14.9355 133.346 14.7648 134.104 14.6368C134.861 14.5088 135.672 14.4448 136.536 14.4448C137.912 14.4448 139.064 14.6048 139.992 14.9248C140.92 15.2448 141.661 15.6982 142.216 16.2848C142.77 16.8715 143.17 17.5755 143.416 18.3968C143.661 19.2075 143.784 20.1035 143.784 21.0848V30.5728H138.968ZM133.96 30.9408C132.392 30.9408 131.202 30.5462 130.392 29.7568C129.581 28.9675 129.176 27.8422 129.176 26.3808V25.9488C129.176 24.4022 129.65 23.2608 130.6 22.5248C131.56 21.7782 133.08 21.2715 135.16 21.0048L139.384 20.4448L139.672 23.3888L135.928 23.9328C135.17 24.0288 134.637 24.2048 134.328 24.4608C134.018 24.7168 133.864 25.0955 133.864 25.5968V25.7088C133.864 26.1888 134.018 26.5728 134.328 26.8608C134.637 27.1382 135.133 27.2768 135.816 27.2768C136.413 27.2768 136.925 27.1862 137.352 27.0048C137.789 26.8235 138.146 26.5888 138.424 26.3008C138.701 26.0022 138.909 25.6715 139.048 25.3088L139.736 27.2928H138.936C138.765 27.9755 138.498 28.5942 138.136 29.1488C137.784 29.7035 137.272 30.1408 136.6 30.4608C135.928 30.7808 135.048 30.9408 133.96 30.9408ZM146.851 30.5728V9.43682H151.747V30.5728H146.851ZM162.83 30.9728C159.971 30.9728 157.859 30.3382 156.494 29.0688C155.129 27.7888 154.446 25.9275 154.446 23.4848V21.8528C154.446 19.4422 155.086 17.5968 156.366 16.3168C157.646 15.0262 159.507 14.3808 161.95 14.3808C163.593 14.3808 164.958 14.6635 166.046 15.2288C167.145 15.7835 167.966 16.5782 168.51 17.6128C169.065 18.6475 169.342 19.8902 169.342 21.3408V21.8688C169.342 22.2742 169.321 22.6902 169.278 23.1168C169.246 23.5328 169.198 23.9222 169.134 24.2848H164.718C164.761 23.6662 164.787 23.0848 164.798 22.5408C164.809 21.9862 164.814 21.4848 164.814 21.0368C164.814 20.3862 164.713 19.8422 164.51 19.4048C164.307 18.9568 163.993 18.6155 163.566 18.3808C163.15 18.1462 162.611 18.0288 161.95 18.0288C160.969 18.0288 160.249 18.2955 159.79 18.8288C159.342 19.3515 159.118 20.0982 159.118 21.0688V22.5088L159.15 23.0368V24.1568C159.15 24.5622 159.214 24.9462 159.342 25.3088C159.481 25.6715 159.715 25.9915 160.046 26.2688C160.387 26.5355 160.851 26.7488 161.438 26.9088C162.035 27.0582 162.793 27.1328 163.71 27.1328C164.681 27.1328 165.614 27.0422 166.51 26.8608C167.406 26.6688 168.265 26.4128 169.086 26.0928L168.686 29.7728C167.961 30.1462 167.102 30.4395 166.11 30.6528C165.118 30.8662 164.025 30.9728 162.83 30.9728ZM157.038 24.2848V21.2608H168.142V24.2848H157.038Z" fill="#040110"/>
</svg>
