<svg width="245" height="52" viewBox="0 0 245 52" fill="none" xmlns="http://www.w3.org/2000/svg">
<g clip-path="url(#clip0_1_11)">
<path d="M23.8125 11.75C24.8502 11.7242 25.8879 11.6984 26.957 11.6719C31.6234 12.1751 34.1419 14.0193 37.1875 17.5C38.4969 19.306 39.7626 21.1439 41 23C42.155 23.1444 43.31 23.2887 44.5 23.4375C45.655 23.6231 46.81 23.8088 48 24C49.125 26 49.125 26 50 28C52.5195 28.7374 52.5195 28.7374 55 29C56.8949 30.8949 56.1802 33.5714 56.2305 36.0898C56 38 56 38 54 40C51.8882 40.2674 51.8882 40.2674 49.2466 40.2905C48.2586 40.3033 47.2706 40.316 46.2527 40.3292C44.6465 40.3325 44.6465 40.3325 43.0078 40.3359C41.9103 40.3426 40.8128 40.3493 39.6821 40.3561C37.3569 40.3662 35.0317 40.3709 32.7065 40.3706C29.1463 40.375 25.5873 40.4113 22.0273 40.4492C19.7708 40.4551 17.5143 40.4591 15.2578 40.4609C14.191 40.4753 13.1243 40.4897 12.0252 40.5045C4.64771 40.4588 4.64771 40.4588 1.33179 38.1099C-0.949433 34.4959 -0.882857 31.1125 3.69549e-06 27C2.25 24.4375 2.25 24.4375 5 23C6.32 23 7.64 23 9 23C9.04125 22.2781 9.0825 21.5562 9.125 20.8125C10.3947 16.7315 12.5772 15.5147 16 13C18.6766 11.6617 20.8243 11.7942 23.8125 11.75ZM25 15C25 15.66 25 16.32 25 17C22.36 17 19.72 17 17 17C17 17.33 17 17.66 17 18C18.98 18 20.96 18 23 18C23 18.66 23 19.32 23 20C22.34 20 21.68 20 21 20C21 20.66 21 21.32 21 22C18.36 22 15.72 22 13 22C13 22.33 13 22.66 13 23C15.31 23 17.62 23 20 23C20 23.66 20 24.32 20 25C17.36 25 14.72 25 12 25C11.67 26.98 11.34 28.96 11 31C8.36 31 5.72 31 3 31C3 31.33 3 31.66 3 32C5.64 32 8.28 32 11 32C11.66 33.65 12.32 35.3 13 37C25.54 37 38.08 37 51 37C51.66 35.68 52.32 34.36 53 33C51.9336 31.7037 51.9336 31.7037 49.4375 31.9375C48.6331 31.9581 47.8288 31.9787 47 32C46.505 30.02 46.505 30.02 46 28C44.1082 27.3185 44.1082 27.3185 42 27C41.34 27.66 40.68 28.32 40 29C39.01 29 38.02 29 37 29C36.7731 27.7831 36.5463 26.5662 36.3125 25.3125C35.2309 21.0167 33.5712 18.7407 30 16C27.3221 15.1276 27.3221 15.1276 25 15Z" fill="#9A25D0"/>
</g>
<path d="M90.368 25.896C90.368 30.8667 88.8213 34.1413 85.728 35.72C87.52 36.0187 88.9067 36.552 89.888 37.32C90.8907 38.088 91.6907 39.336 92.288 41.064L88 42.536C87.488 41.32 86.9653 40.3493 86.432 39.624C85.8987 38.92 85.216 38.376 84.384 37.992C83.5733 37.6293 82.5387 37.448 81.28 37.448C78.5493 37.448 76.4907 36.4453 75.104 34.44C73.7173 32.4133 73.024 29.5653 73.024 25.896C73.024 22.2693 73.76 19.4213 75.232 17.352C76.704 15.2827 78.8587 14.248 81.696 14.248C84.5547 14.248 86.7093 15.272 88.16 17.32C89.632 19.368 90.368 22.2267 90.368 25.896ZM84.928 25.896C84.928 24.0187 84.832 22.5253 84.64 21.416C84.448 20.2853 84.1173 19.4533 83.648 18.92C83.1787 18.3867 82.528 18.12 81.696 18.12C80.864 18.12 80.2133 18.3973 79.744 18.952C79.2747 19.4853 78.944 20.3173 78.752 21.448C78.56 22.5573 78.464 24.04 78.464 25.896C78.464 28.6693 78.6987 30.664 79.168 31.88C79.6587 33.096 80.5013 33.704 81.696 33.704C82.5493 33.704 83.2 33.4373 83.648 32.904C84.1173 32.3493 84.448 31.5173 84.64 30.408C84.832 29.2773 84.928 27.7733 84.928 25.896ZM98.4835 31.624C98.4835 32.4133 98.6222 32.9787 98.8995 33.32C99.1982 33.64 99.6355 33.8 100.212 33.8C100.724 33.8 101.246 33.64 101.78 33.32C102.313 32.9787 102.75 32.52 103.092 31.944V20.008H108.148V37H103.732L103.508 35.016C102.953 35.8267 102.206 36.456 101.268 36.904C100.329 37.3307 99.3368 37.544 98.2915 37.544C96.6915 37.544 95.4755 37.0853 94.6435 36.168C93.8328 35.2293 93.4275 33.928 93.4275 32.264V20.008H98.4835V31.624ZM119.943 11.112C120.818 11.112 121.532 11.3893 122.087 11.944C122.642 12.4773 122.919 13.1493 122.919 13.96C122.919 14.792 122.642 15.4747 122.087 16.008C121.532 16.5413 120.818 16.808 119.943 16.808C119.068 16.808 118.343 16.5413 117.767 16.008C117.212 15.4533 116.935 14.7707 116.935 13.96C116.935 13.1493 117.212 12.4773 117.767 11.944C118.343 11.3893 119.068 11.112 119.943 11.112ZM122.983 33.544H127.335V37H113.127V33.544H117.927V23.464H113.287V20.008H122.983V33.544ZM140.827 33.544C141.467 33.544 142.085 33.4267 142.683 33.192C143.28 32.936 143.92 32.5733 144.603 32.104L146.843 35.304C146.032 35.9867 145.093 36.5307 144.027 36.936C142.96 37.3413 141.797 37.544 140.539 37.544C138.725 37.544 137.157 37.1707 135.835 36.424C134.533 35.6773 133.531 34.632 132.827 33.288C132.123 31.944 131.771 30.3867 131.771 28.616C131.771 26.8453 132.133 25.2667 132.859 23.88C133.584 22.4933 134.608 21.4053 135.931 20.616C137.275 19.8267 138.843 19.432 140.635 19.432C141.893 19.432 143.024 19.6133 144.027 19.976C145.029 20.3173 145.968 20.8507 146.843 21.576L144.667 24.616C143.429 23.7627 142.16 23.336 140.859 23.336C138.32 23.336 137.051 25.096 137.051 28.616C137.051 30.3867 137.381 31.656 138.043 32.424C138.704 33.1707 139.632 33.544 140.827 33.544ZM156.046 37H150.99V13.256L156.046 12.712V37ZM161.518 27.528L167.566 37H161.806L156.238 27.688L161.838 20.008H167.118L161.518 27.528ZM170.914 14.824H176.161V32.84H185.762L185.25 37H170.914V14.824ZM196.693 11.112C197.568 11.112 198.282 11.3893 198.837 11.944C199.392 12.4773 199.669 13.1493 199.669 13.96C199.669 14.792 199.392 15.4747 198.837 16.008C198.282 16.5413 197.568 16.808 196.693 16.808C195.818 16.808 195.093 16.5413 194.517 16.008C193.962 15.4533 193.685 14.7707 193.685 13.96C193.685 13.1493 193.962 12.4773 194.517 11.944C195.093 11.3893 195.818 11.112 196.693 11.112ZM199.733 33.544H204.085V37H189.877V33.544H194.677V23.464H190.037V20.008H199.733V33.544ZM208.553 20.008H212.969L213.321 21.96C214.089 21.1067 214.889 20.4773 215.72 20.072C216.574 19.6453 217.534 19.432 218.601 19.432C220.073 19.432 221.214 19.88 222.025 20.776C222.857 21.672 223.273 22.92 223.273 24.52V37H218.217V25.992C218.217 24.9253 218.099 24.1893 217.865 23.784C217.63 23.3787 217.203 23.176 216.585 23.176C216.073 23.176 215.571 23.3467 215.081 23.688C214.611 24.008 214.121 24.488 213.609 25.128V37H208.553V20.008ZM232.796 37H227.74V13.256L232.796 12.712V37ZM238.268 27.528L244.316 37H238.556L232.988 27.688L238.588 20.008H243.868L238.268 27.528Z" fill="white"/>
<defs>
<clipPath id="clip0_1_11">
<rect width="56" height="52" fill="#0e0811"/>
</clipPath>
</defs>
</svg>
