<svg width="184" height="38" viewBox="0 0 184 38" fill="none" xmlns="http://www.w3.org/2000/svg">
<path d="M34.4985 14.7134C34.4676 14.7137 34.4366 14.7138 34.4056 14.7138C29.3565 14.7138 25.2305 10.9177 25.2305 6.19577C25.2305 6.14855 25.2309 6.101 25.2317 6.06029C25.2183 3.61774 23.0709 1.61146 20.3856 1.61146C17.691 1.61146 15.5395 3.6311 15.5395 6.08341C15.5395 8.52782 17.6775 10.5432 20.353 10.5553C20.4043 10.5546 20.4556 10.5542 20.5069 10.5542C25.556 10.5542 29.682 14.3503 29.682 19.0722V19.0736C29.682 19.0934 29.682 19.1241 29.6812 19.1477L29.6817 19.1595L29.682 19.1834L29.682 19.1858C29.682 19.199 29.6817 19.2123 29.6813 19.2231C29.6811 19.2275 29.6808 19.2342 29.6803 19.2411C29.6802 19.2416 29.6802 19.2421 29.6801 19.2426L29.6801 19.2428C29.68 19.2448 29.679 19.2562 29.6766 19.2695C29.6758 19.2736 29.6742 19.2817 29.6713 19.2918L29.6712 19.2923C29.6696 19.2982 29.6617 19.3262 29.6425 19.3569C29.6334 19.3713 29.6063 19.4121 29.5532 19.442C29.5138 19.4642 29.4681 19.4756 29.4217 19.474C29.426 19.391 29.4289 19.3076 29.4306 19.224C29.4306 19.2241 29.4307 19.2241 29.4307 19.224L34.4985 14.7134ZM34.4985 14.7134C34.5007 14.7135 34.5024 14.7135 34.5033 14.7136L34.5264 14.7138H34.5282C37.2228 14.7138 39.3743 16.7335 39.3743 19.1858C39.3743 21.6302 37.2362 23.6459 34.5518 23.6577C34.508 23.6569 34.4567 23.6565 34.4056 23.6565C29.3597 23.6565 25.2356 27.4479 25.2305 32.1658C25.1713 34.5744 23.0381 36.5342 20.3856 36.5342C17.691 36.5342 15.5395 34.5145 15.5395 32.0622C15.5395 29.6099 17.691 27.5903 20.3856 27.5903L20.3876 27.5903L20.412 27.59L20.4261 27.5895L34.4985 14.7134ZM29.431 19.1471C29.4318 19.1368 29.432 19.1045 29.432 19.0722C29.432 19.0395 29.4318 19.0068 29.4314 18.9741C29.4696 18.9742 29.5084 18.983 29.545 19.0018C29.5864 19.0231 29.6134 19.0515 29.6292 19.0722C29.6363 19.0814 29.6411 19.0891 29.6441 19.094C29.6547 19.1115 29.6612 19.127 29.6648 19.1365L29.431 19.1471ZM29.431 19.1471L29.431 19.1472C29.4317 19.1635 29.4318 19.1659 29.432 19.1784L29.5601 19.1577L29.431 19.1471ZM34.7577 14.4685C34.6948 14.4659 34.6317 14.4644 34.5682 14.464L34.6236 14.6849C34.6227 14.6854 34.6239 14.6848 34.6262 14.6836C34.6287 14.6822 34.6324 14.6802 34.6362 14.6779C34.6365 14.6777 34.6723 14.658 34.7033 14.6192C34.7206 14.5975 34.7542 14.5479 34.7575 14.4748C34.7576 14.4727 34.7576 14.4706 34.7577 14.4685ZM26.1213 32.1788H26.1213L26.1213 32.1731C26.1222 27.9628 29.8126 24.518 34.4056 24.518C34.4532 24.518 34.5006 24.5184 34.548 24.5191V24.5191L34.5528 24.5191C37.6917 24.5068 40.2651 22.1412 40.2651 19.1858C40.2651 16.2226 37.6783 13.8524 34.5282 13.8524C34.5237 13.8524 34.5189 13.8523 34.5137 13.8521L34.5137 13.8517L34.501 13.8519C34.4692 13.8522 34.4374 13.8524 34.4056 13.8524C29.812 13.8524 26.1213 10.4067 26.1213 6.19577C26.1213 6.1521 26.1217 6.10853 26.1225 6.06505L26.1226 6.06505L26.1226 6.05934C26.1085 3.10731 23.5273 0.75 20.3856 0.75C17.2355 0.75 14.6487 3.12021 14.6487 6.08341C14.6487 9.03853 17.2215 11.4039 20.3599 11.4168V11.4168L20.3648 11.4167C20.4121 11.416 20.4595 11.4156 20.5069 11.4156C25.1005 11.4156 28.7912 14.8612 28.7912 19.0722C28.7912 19.1021 28.791 19.1319 28.7907 19.1618L28.7906 19.17L28.791 19.1782L28.7912 19.1858C28.7912 19.1881 28.7911 19.1916 28.7907 19.1963L28.79 19.2044L28.7898 19.2126C28.7092 23.3593 25.0493 26.7288 20.5069 26.7288C20.4749 26.7288 20.443 26.7287 20.4111 26.7283L20.4111 26.728L20.3976 26.7286L20.3856 26.7288C17.2355 26.7288 14.6487 29.099 14.6487 32.0622C14.6487 35.0254 17.2355 37.3956 20.3856 37.3956C23.4945 37.3956 26.0541 35.0877 26.1213 32.1788ZM11.3331 19.1858C11.3331 21.6381 9.18156 23.6577 6.48696 23.6577C3.79236 23.6577 1.64083 21.6381 1.64083 19.1858C1.64083 16.7335 3.79236 14.7138 6.48696 14.7138C9.18156 14.7138 11.3331 16.7335 11.3331 19.1858ZM0.75 19.1858C0.75 22.149 3.33685 24.5192 6.48696 24.5192C9.63707 24.5192 12.2239 22.149 12.2239 19.1858C12.2239 16.2226 9.63707 13.8524 6.48696 13.8524C3.33685 13.8524 0.75 16.2226 0.75 19.1858Z" stroke="#6f3dd4" stroke-width="0.5"/></svg>