<svg width="184" height="38" viewBox="0 0 184 38" fill="none" xmlns="http://www.w3.org/2000/svg">
<path d="M34.4985 14.7134C34.4676 14.7137 34.4366 14.7138 34.4056 14.7138C29.3565 14.7138 25.2305 10.9177 25.2305 6.19577C25.2305 6.14855 25.2309 6.101 25.2317 6.06029C25.2183 3.61774 23.0709 1.61146 20.3856 1.61146C17.691 1.61146 15.5395 3.6311 15.5395 6.08341C15.5395 8.52782 17.6775 10.5432 20.353 10.5553C20.4043 10.5546 20.4556 10.5542 20.5069 10.5542C25.556 10.5542 29.682 14.3503 29.682 19.0722V19.0736C29.682 19.0934 29.682 19.1241 29.6812 19.1477L29.6817 19.1595L29.682 19.1834L29.682 19.1858C29.682 19.199 29.6817 19.2123 29.6813 19.2231C29.6811 19.2275 29.6808 19.2342 29.6803 19.2411C29.6802 19.2416 29.6802 19.2421 29.6801 19.2426L29.6801 19.2428C29.68 19.2448 29.679 19.2562 29.6766 19.2695C29.6758 19.2736 29.6742 19.2817 29.6713 19.2918L29.6712 19.2923C29.6696 19.2982 29.6617 19.3262 29.6425 19.3569C29.6334 19.3713 29.6063 19.4121 29.5532 19.442C29.5138 19.4642 29.4681 19.4756 29.4217 19.474C29.426 19.391 29.4289 19.3076 29.4306 19.224C29.4306 19.2241 29.4307 19.2241 29.4307 19.224L34.4985 14.7134ZM34.4985 14.7134C34.5007 14.7135 34.5024 14.7135 34.5033 14.7136L34.5264 14.7138H34.5282C37.2228 14.7138 39.3743 16.7335 39.3743 19.1858C39.3743 21.6302 37.2362 23.6459 34.5518 23.6577C34.508 23.6569 34.4567 23.6565 34.4056 23.6565C29.3597 23.6565 25.2356 27.4479 25.2305 32.1658C25.1713 34.5744 23.0381 36.5342 20.3856 36.5342C17.691 36.5342 15.5395 34.5145 15.5395 32.0622C15.5395 29.6099 17.691 27.5903 20.3856 27.5903L20.3876 27.5903L20.412 27.59L20.4261 27.5895L34.4985 14.7134ZM29.431 19.1471C29.4318 19.1368 29.432 19.1045 29.432 19.0722C29.432 19.0395 29.4318 19.0068 29.4314 18.9741C29.4696 18.9742 29.5084 18.983 29.545 19.0018C29.5864 19.0231 29.6134 19.0515 29.6292 19.0722C29.6363 19.0814 29.6411 19.0891 29.6441 19.094C29.6547 19.1115 29.6612 19.127 29.6648 19.1365L29.431 19.1471ZM29.431 19.1471L29.431 19.1472C29.4317 19.1635 29.4318 19.1659 29.432 19.1784L29.5601 19.1577L29.431 19.1471ZM34.7577 14.4685C34.6948 14.4659 34.6317 14.4644 34.5682 14.464L34.6236 14.6849C34.6227 14.6854 34.6239 14.6848 34.6262 14.6836C34.6287 14.6822 34.6324 14.6802 34.6362 14.6779C34.6365 14.6777 34.6723 14.658 34.7033 14.6192C34.7206 14.5975 34.7542 14.5479 34.7575 14.4748C34.7576 14.4727 34.7576 14.4706 34.7577 14.4685ZM26.1213 32.1788H26.1213L26.1213 32.1731C26.1222 27.9628 29.8126 24.518 34.4056 24.518C34.4532 24.518 34.5006 24.5184 34.548 24.5191V24.5191L34.5528 24.5191C37.6917 24.5068 40.2651 22.1412 40.2651 19.1858C40.2651 16.2226 37.6783 13.8524 34.5282 13.8524C34.5237 13.8524 34.5189 13.8523 34.5137 13.8521L34.5137 13.8517L34.501 13.8519C34.4692 13.8522 34.4374 13.8524 34.4056 13.8524C29.812 13.8524 26.1213 10.4067 26.1213 6.19577C26.1213 6.1521 26.1217 6.10853 26.1225 6.06505L26.1226 6.06505L26.1226 6.05934C26.1085 3.10731 23.5273 0.75 20.3856 0.75C17.2355 0.75 14.6487 3.12021 14.6487 6.08341C14.6487 9.03853 17.2215 11.4039 20.3599 11.4168V11.4168L20.3648 11.4167C20.4121 11.416 20.4595 11.4156 20.5069 11.4156C25.1005 11.4156 28.7912 14.8612 28.7912 19.0722C28.7912 19.1021 28.791 19.1319 28.7907 19.1618L28.7906 19.17L28.791 19.1782L28.7912 19.1858C28.7912 19.1881 28.7911 19.1916 28.7907 19.1963L28.79 19.2044L28.7898 19.2126C28.7092 23.3593 25.0493 26.7288 20.5069 26.7288C20.4749 26.7288 20.443 26.7287 20.4111 26.7283L20.4111 26.728L20.3976 26.7286L20.3856 26.7288C17.2355 26.7288 14.6487 29.099 14.6487 32.0622C14.6487 35.0254 17.2355 37.3956 20.3856 37.3956C23.4945 37.3956 26.0541 35.0877 26.1213 32.1788ZM11.3331 19.1858C11.3331 21.6381 9.18156 23.6577 6.48696 23.6577C3.79236 23.6577 1.64083 21.6381 1.64083 19.1858C1.64083 16.7335 3.79236 14.7138 6.48696 14.7138C9.18156 14.7138 11.3331 16.7335 11.3331 19.1858ZM0.75 19.1858C0.75 22.149 3.33685 24.5192 6.48696 24.5192C9.63707 24.5192 12.2239 22.149 12.2239 19.1858C12.2239 16.2226 9.63707 13.8524 6.48696 13.8524C3.33685 13.8524 0.75 16.2226 0.75 19.1858Z" fill="#9A25D0" stroke="#9A25D0" stroke-width="0.5"/>
<path d="M57.8871 31.0208C54.9751 31.0208 52.8045 30.2528 51.3751 28.7168C49.9565 27.1702 49.2471 24.9675 49.2471 22.1088V18.4768C49.2471 15.6715 49.9618 13.5062 51.3911 11.9808C52.8205 10.4448 54.9751 9.67682 57.8551 9.67682C58.6231 9.67682 59.3325 9.73549 59.9831 9.85282C60.6338 9.97015 61.2258 10.1302 61.7591 10.3328C62.2925 10.5248 62.7618 10.7435 63.1671 10.9888L63.5351 15.2768C62.9058 14.9462 62.2125 14.6582 61.4551 14.4128C60.7085 14.1568 59.8391 14.0288 58.8471 14.0288C57.3218 14.0288 56.1911 14.4395 55.4551 15.2608C54.7298 16.0715 54.3671 17.2128 54.3671 18.6848V21.9168C54.3671 23.3782 54.7351 24.5195 55.4711 25.3408C56.2178 26.1622 57.4071 26.5728 59.0391 26.5728C59.9991 26.5728 60.8578 26.4448 61.6151 26.1888C62.3725 25.9328 63.0658 25.6235 63.6951 25.2608L63.3271 29.6448C62.9218 29.8902 62.4471 30.1195 61.9031 30.3328C61.3591 30.5355 60.7511 30.7008 60.0791 30.8288C59.4178 30.9568 58.6871 31.0208 57.8871 31.0208ZM73.1109 31.0208C70.5722 31.0208 68.6522 30.3915 67.3509 29.1328C66.0602 27.8635 65.4149 26.0822 65.4149 23.7888V21.7248C65.4149 19.3995 66.0656 17.5968 67.3669 16.3168C68.6682 15.0262 70.5829 14.3808 73.1109 14.3808C75.6389 14.3808 77.5482 15.0262 78.8389 16.3168C80.1402 17.5968 80.7909 19.3995 80.7909 21.7248V23.7888C80.7909 26.0822 80.1456 27.8635 78.8549 29.1328C77.5642 30.3915 75.6496 31.0208 73.1109 31.0208ZM73.1109 27.1648C74.0176 27.1648 74.7056 26.8928 75.1749 26.3488C75.6549 25.7942 75.8949 25.0102 75.8949 23.9968V21.5168C75.8949 20.4502 75.6549 19.6395 75.1749 19.0848C74.7056 18.5302 74.0176 18.2528 73.1109 18.2528C72.2042 18.2528 71.5109 18.5302 71.0309 19.0848C70.5616 19.6395 70.3269 20.4502 70.3269 21.5168V23.9968C70.3269 25.0102 70.5616 25.7942 71.0309 26.3488C71.5109 26.8928 72.2042 27.1648 73.1109 27.1648ZM88.5629 30.9408C86.7282 30.9408 85.3362 30.3382 84.3869 29.1328C83.4482 27.9275 82.9789 26.1355 82.9789 23.7568V21.8208C82.9789 19.3995 83.4536 17.5702 84.4029 16.3328C85.3522 15.0955 86.7869 14.4768 88.7069 14.4768C89.6456 14.4768 90.4296 14.6315 91.0589 14.9408C91.6882 15.2502 92.1896 15.6875 92.5629 16.2528C92.9469 16.8182 93.2136 17.4848 93.3629 18.2528H94.6909L93.5389 21.4208C93.5176 20.7702 93.3896 20.2208 93.1549 19.7728C92.9202 19.3248 92.5896 18.9835 92.1629 18.7488C91.7469 18.5035 91.2402 18.3808 90.6429 18.3808C89.7469 18.3808 89.0642 18.6422 88.5949 19.1648C88.1256 19.6875 87.8909 20.4715 87.8909 21.5168V23.7728C87.8909 24.8075 88.1256 25.5915 88.5949 26.1248C89.0749 26.6475 89.7789 26.9088 90.7069 26.9088C91.1976 26.9088 91.6349 26.8182 92.0189 26.6368C92.4136 26.4555 92.7442 26.2048 93.0109 25.8848C93.2882 25.5648 93.4909 25.2022 93.6189 24.7968L94.8189 27.1648H93.4429C93.2829 27.8688 93.0162 28.5088 92.6429 29.0848C92.2696 29.6608 91.7522 30.1142 91.0909 30.4448C90.4296 30.7755 89.5869 30.9408 88.5629 30.9408ZM93.4749 30.5728L93.6189 26.5888L93.5389 25.7568V19.3888V18.7008L93.4749 14.1408V9.43682H98.3389V30.5728H93.4749ZM109.424 30.9728C106.565 30.9728 104.453 30.3382 103.088 29.0688C101.723 27.7888 101.04 25.9275 101.04 23.4848V21.8528C101.04 19.4422 101.68 17.5968 102.96 16.3168C104.24 15.0262 106.101 14.3808 108.544 14.3808C110.187 14.3808 111.552 14.6635 112.64 15.2288C113.739 15.7835 114.56 16.5782 115.104 17.6128C115.659 18.6475 115.936 19.8902 115.936 21.3408V21.8688C115.936 22.2742 115.915 22.6902 115.872 23.1168C115.84 23.5328 115.792 23.9222 115.728 24.2848H111.312C111.355 23.6662 111.381 23.0848 111.392 22.5408C111.403 21.9862 111.408 21.4848 111.408 21.0368C111.408 20.3862 111.307 19.8422 111.104 19.4048C110.901 18.9568 110.587 18.6155 110.16 18.3808C109.744 18.1462 109.205 18.0288 108.544 18.0288C107.563 18.0288 106.843 18.2955 106.384 18.8288C105.936 19.3515 105.712 20.0982 105.712 21.0688V22.5088L105.744 23.0368V24.1568C105.744 24.5622 105.808 24.9462 105.936 25.3088C106.075 25.6715 106.309 25.9915 106.64 26.2688C106.981 26.5355 107.445 26.7488 108.032 26.9088C108.629 27.0582 109.387 27.1328 110.304 27.1328C111.275 27.1328 112.208 27.0422 113.104 26.8608C114 26.6688 114.859 26.4128 115.68 26.0928L115.28 29.7728C114.555 30.1462 113.696 30.4395 112.704 30.6528C111.712 30.8662 110.619 30.9728 109.424 30.9728ZM103.632 24.2848V21.2608H114.736V24.2848H103.632ZM125.705 10.1088L131.241 25.1168H131.465L131.241 16.4768V10.1088H136.009V30.5728H129.305L123.561 15.2288H123.353L123.577 24.0608V30.5728H118.809V10.1088H125.705ZM147.268 30.9728C144.409 30.9728 142.297 30.3382 140.932 29.0688C139.566 27.7888 138.884 25.9275 138.884 23.4848V21.8528C138.884 19.4422 139.524 17.5968 140.804 16.3168C142.084 15.0262 143.945 14.3808 146.388 14.3808C148.03 14.3808 149.396 14.6635 150.484 15.2288C151.582 15.7835 152.404 16.5782 152.948 17.6128C153.502 18.6475 153.78 19.8902 153.78 21.3408V21.8688C153.78 22.2742 153.758 22.6902 153.716 23.1168C153.684 23.5328 153.636 23.9222 153.572 24.2848H149.156C149.198 23.6662 149.225 23.0848 149.236 22.5408C149.246 21.9862 149.252 21.4848 149.252 21.0368C149.252 20.3862 149.15 19.8422 148.948 19.4048C148.745 18.9568 148.43 18.6155 148.004 18.3808C147.588 18.1462 147.049 18.0288 146.388 18.0288C145.406 18.0288 144.686 18.2955 144.228 18.8288C143.78 19.3515 143.556 20.0982 143.556 21.0688V22.5088L143.588 23.0368V24.1568C143.588 24.5622 143.652 24.9462 143.78 25.3088C143.918 25.6715 144.153 25.9915 144.484 26.2688C144.825 26.5355 145.289 26.7488 145.876 26.9088C146.473 27.0582 147.23 27.1328 148.148 27.1328C149.118 27.1328 150.052 27.0422 150.948 26.8608C151.844 26.6688 152.702 26.4128 153.524 26.0928L153.124 29.7728C152.398 30.1462 151.54 30.4395 150.548 30.6528C149.556 30.8662 148.462 30.9728 147.268 30.9728ZM141.476 24.2848V21.2608H152.58V24.2848H141.476ZM162.122 30.9568C160.874 30.9568 159.749 30.8448 158.746 30.6208C157.743 30.4075 156.885 30.1568 156.17 29.8688L155.754 25.7568C156.575 26.0982 157.482 26.4075 158.474 26.6848C159.477 26.9515 160.559 27.0848 161.722 27.0848C162.65 27.0848 163.306 26.9888 163.69 26.7968C164.085 26.5942 164.282 26.2848 164.282 25.8688V25.8048C164.282 25.5168 164.181 25.2822 163.978 25.1008C163.786 24.9088 163.445 24.7382 162.954 24.5888C162.474 24.4395 161.797 24.2635 160.922 24.0608C159.61 23.7515 158.57 23.3888 157.802 22.9728C157.034 22.5462 156.485 22.0288 156.154 21.4208C155.834 20.8022 155.674 20.0715 155.674 19.2288V19.1008C155.674 17.5435 156.229 16.3808 157.338 15.6128C158.447 14.8342 160.079 14.4448 162.234 14.4448C163.45 14.4448 164.543 14.5568 165.514 14.7808C166.485 15.0048 167.301 15.2715 167.962 15.5808L168.378 19.4048C167.61 19.0635 166.751 18.7808 165.802 18.5568C164.863 18.3328 163.877 18.2208 162.842 18.2208C162.213 18.2208 161.717 18.2635 161.354 18.3488C161.002 18.4342 160.751 18.5568 160.602 18.7168C160.463 18.8768 160.394 19.0742 160.394 19.3088V19.3568C160.394 19.6128 160.479 19.8315 160.65 20.0128C160.821 20.1942 161.13 20.3648 161.578 20.5248C162.037 20.6848 162.693 20.8662 163.546 21.0688C164.869 21.3568 165.935 21.6875 166.746 22.0608C167.557 22.4235 168.149 22.8982 168.522 23.4848C168.895 24.0608 169.082 24.8288 169.082 25.7888V25.9328C169.082 27.6288 168.511 28.8928 167.37 29.7248C166.229 30.5462 164.479 30.9568 162.122 30.9568ZM177.529 30.9248C176.132 30.9248 175.017 30.7168 174.185 30.3008C173.364 29.8742 172.772 29.2395 172.409 28.3968C172.046 27.5542 171.865 26.5142 171.865 25.2768V16.4928H176.729V24.4928C176.729 25.2608 176.9 25.8262 177.241 26.1888C177.593 26.5408 178.244 26.7168 179.193 26.7168C179.716 26.7168 180.233 26.6582 180.745 26.5408C181.257 26.4235 181.721 26.2742 182.137 26.0928L181.721 30.1408C181.177 30.3755 180.548 30.5622 179.833 30.7008C179.129 30.8502 178.361 30.9248 177.529 30.9248ZM169.753 18.7488V14.9088H181.993L181.561 18.7488H169.753ZM171.929 15.2608L171.913 11.1968L176.761 10.7328L176.585 15.2608H171.929Z" fill="#0F0811"/>
</svg>
